<svg fill="#000000" width="256px" height="256px" version="1.1" viewBox="144 144 512 512" xmlns="http://www.w3.org/2000/svg"><g id="SVGRepo_bgCarrier" stroke-width="0"></g><g id="SVGRepo_tracerCarrier" stroke-linecap="round" stroke-linejoin="round"></g><g id="SVGRepo_iconCarrier"> <g> <path d="m302.13 412.03h-27.184c-33.762 0-61.23 27.473-61.23 61.238v26.348c0 0.054688-0.03125 0.09375-0.03125 0.14844 0 0.054687 0.03125 0.10156 0.03125 0.14844v48.711c0 25.551 20.797 46.352 46.352 46.352h213.2c0.10938 0 0.19531-0.054687 0.30859-0.0625h74.57c4.3516 0 7.8711-3.5195 7.8711-7.8711v-28.246l30.133-150.61c0.46484-2.3125-0.14062-4.7148-1.6289-6.5352-1.4961-1.8203-3.7305-2.8828-6.0859-2.8828l-154.73 0.003906c-3.7539 0-6.9844 2.6445-7.7148 6.3281l-1.3867 6.9258h-11.754c-9.4922 0-17.223-7.7227-17.223-17.223v-13.594c13.902-7.1641 24.535-19.758 29.078-34.992h13.32c13.746 0 24.93-11.188 24.93-24.93v-16.641c0-9.6992-5.6602-18.23-13.801-22.262v-8.9258c0-37.738-30.691-68.43-68.422-68.43h-36.559c-37.684 0-68.344 30.691-68.344 68.43v8.9805c-8.2969 4.125-13.887 12.594-13.887 22.215v16.641c0 13.746 11.227 24.93 25.023 24.93h13.289c4.543 15.242 15.191 27.836 29.102 35v13.586c0.003906 9.4961-7.7266 17.219-17.223 17.219zm-72.664 136.6v-40.988h48.91v23.586c0 4.3516 3.5195 7.8711 7.8711 7.8711h102.93l-2.2109 11.051h-69.887c-4.3516 0-7.8711 3.5195-7.8711 7.8711v21.207h-49.129c-16.883 0.011719-30.609-13.727-30.609-30.598zm310.8 30.543h-215.32v-13.281h215.32zm28.559-164.65-27.133 135.62h-138.68l27.137-135.63zm-176.5 108.83h-98.203v-42.902c0-4.3516-3.5195-7.8711-7.8711-7.8711s-7.8711 3.5195-7.8711 7.8711v11.445h-48.91v-18.625c0-25.09 20.402-45.492 45.484-45.492h27.184c1.6523 0 3.2422-0.25 4.832-0.48828 15.113 7.5195 30.309 11.406 45.508 11.406 15.199 0 30.395-3.8906 45.5-11.406 1.5977 0.24219 3.2031 0.49609 4.8711 0.49609h8.6055zm44.887-202.06c0 5.0703-4.1172 9.1875-9.1875 9.1875h-10.926c0-0.26172 0.039063-0.51172 0.039063-0.78125v-25.379c0-3.0234-0.30859-5.9766-0.75391-8.8711h11.637c0.875 0 1.2266 0.078125 1.7773 0.19531 4.2969 0.82031 7.4062 4.6055 7.4062 8.9961v16.652zm-103.04-100.53h36.559c29.047 0 52.68 23.641 52.68 52.688v6.2578h-11.84c-9.2812-19.664-29.246-33.34-52.387-33.34h-13.391c-23.152 0-43.121 13.672-52.395 33.34h-11.816v-6.2578c-0.011719-29.051 23.582-52.688 52.59-52.688zm-57.207 109.72c-5.1172 0-9.2812-4.1172-9.2812-9.1875v-16.641c0-4.3945 3.1406-8.1719 7.9336-9.0938 0.14844-0.039063 0.51953-0.10156 1.3477-0.10156h11.602c-0.44922 2.8984-0.75391 5.8477-0.75391 8.8711v25.379c0 0.26172 0.039062 0.51172 0.039062 0.78125h-10.887zm26.602-0.77734v-25.379c0-23.277 18.941-42.211 42.219-42.211h13.391c23.277 0 42.211 18.934 42.211 42.211v25.379c0 23.277-18.934 42.211-42.211 42.211h-13.391c-23.277 0.003907-42.219-18.934-42.219-42.211zm42.219 57.961h13.391c3.6602 0 7.2266-0.37891 10.699-1.0312v8.1797c0 9.0625 3.6836 17.277 9.6211 23.238-18.074 6.375-35.945 6.375-54.035 0.007813 5.9453-5.9688 9.6289-14.184 9.6289-23.254v-8.1797c3.4766 0.65234 7.043 1.0391 10.695 1.0391z"></path> <path d="m483.99 515.77c1.4727 0.32422 2.9766 0.48828 4.4805 0.48828 12.375 0 23.75-10.918 27.031-25.953 1.7148-7.8242 1.0391-15.777-1.9062-22.387-3.2656-7.3281-9.1328-12.391-16.098-13.918-13.492-2.9531-27.828 8.6055-31.52 25.473-3.7852 17.324 4.125 33.266 18.012 36.297zm-2.6367-32.938c1.8359-8.3828 7.4766-13.578 11.652-13.578 0.38672 0 0.74609 0.039063 1.125 0.11719 2.7773 0.60547 4.375 3.3633 5.0859 4.9531 1.5664 3.5039 1.8984 8.1016 0.91406 12.609-2.0078 9.1562-8.3828 14.375-12.77 13.461-4.4492-0.97656-8-8.4219-6.0078-17.562z"></path> </g> </g></svg>