<svg fill="#000000" width="256px" height="256px" version="1.1" viewBox="144 144 512 512" xmlns="http://www.w3.org/2000/svg"><g id="SVGRepo_bgCarrier" stroke-width="0"></g><g id="SVGRepo_tracerCarrier" stroke-linecap="round" stroke-linejoin="round"></g><g id="SVGRepo_iconCarrier"> <g> <path d="m247.35 464.56c-8.0742 0-16.141 3.0078-22.258 9.125-12.23 12.23-12.23 32.34 0 44.57 12.23 12.23 32.281 12.23 44.512 0 12.23-12.23 12.23-32.34 0-44.57-6.1172-6.1172-14.18-9.125-22.258-9.125zm-11.156 20.281c6.2148-6.2148 16.043-6.2148 22.258 0 6.2148 6.2148 6.2148 16.043 0 22.258-6.2148 6.2148-16.043 6.2148-22.258 0-6.2148-6.2148-6.2148-16.043 0-22.258z"></path> <path d="m333.99 343.11c-8.1602-2.8047-19.914-2.9219-30.973 8.1328l-133.6 133.6c-3.0898 3.0781-3.0898 8.0781 0 11.156l22.258 22.258s5.2266 5.3828 13.48 8.1367c9.3555 3.1172 20.824 2.0703 31.031-8.1367l-11.098-11.156c-5.7383 5.7344-10.664 5.7812-14.934 4.3555-4.2695-1.4219-7.3789-4.3555-7.3789-4.3555l-16.68-16.68 128.02-128.02c5.7734-5.7734 10.664-5.7812 14.938-4.3594 4.2695 1.4219 7.3203 4.3594 7.3203 4.3594l16.734 16.676-11.156 11.156 11.156 11.098 16.676-16.676c3.0898-3.0781 3.0898-8.0781 0-11.156l-22.254-22.258s-5.3125-5.3086-13.539-8.1367z"></path> <path d="m308.54 423.65-49.742 50.496 11.215 11.039 49.742-50.496z"></path> <path d="m407.85 510.18v15.746h149.58v-15.746z"></path> <path d="m337.01 455.09c-15.535 0-23.828 8.375-27.719 16.156s-3.7773 15.34-3.7773 15.34v31.496c0.015625 4.3477 3.5547 7.8633 7.9023 7.8438h31.496v-15.746h-23.652v-23.594s0.13672-4.2852 2.1484-8.3086c2.0117-4.0273 5.7383-7.4375 13.598-7.4375h188.92v-15.746z"></path> <path d="m330.85 381.06c-8.0742 0-16.199 3.0664-22.312 9.1797-12.23 12.23-12.23 32.281 0 44.512 12.23 12.23 32.34 12.23 44.57 0s12.23-32.281 0-44.512c-6.1172-6.1133-14.184-9.1797-22.258-9.1797zm-11.156 20.281c6.2148-6.2148 16.043-6.2148 22.258 0s6.2148 16.043 0 22.258-16.043 6.2148-22.258 0c-6.2148-6.2148-6.2148-16.043 0-22.258z"></path> <path d="m236.83 343.4c-2.3047-0.19531-4.5781 0.63281-6.2188 2.2656l-72.348 72.406c-1.8008 1.7969-2.6211 4.3477-2.207 6.8555l11.156 66.77 15.516-2.5547-10.457-62.816 66.941-66.941 68.746 5.2891 1.2188-15.691z"></path> <path d="m225.09 362.41-11.156 11.098 38.992 38.992 11.098-11.156z"></path> <path d="m525.93 368.51c-4.3477 0.015626-7.8633 3.5547-7.8438 7.9023v141.67h15.746l0.003906-133.83h102.33c4.3281-0.015625 7.8281-3.5195 7.8438-7.8438 0.015626-4.3477-3.4961-7.8867-7.8438-7.9023z"></path> <path d="m549.58 376.41v47.188s-0.11328 7.5586 3.7773 15.34 11.957 16.156 27.719 16.156h15.746s8.1914 0.14453 16.156 4.125c7.9609 3.9805 15.281 11.629 15.281 27.371v23.594h-15.691v15.746l23.594 0.019531c7.8711 0 7.8711-7.8711 7.8711-7.8711l-0.023438-31.492c-0.015624-23.609-12.281-35.633-24-41.488-11.719-5.8594-23.184-5.7539-23.184-5.7539h-15.746c-7.8906 0-11.645-3.4102-13.656-7.4375-2.0156-4.0273-2.0938-8.3125-2.0938-8.3125v-47.184z"></path> <path d="m596.82 376.41v70.836h15.746v-70.836z"></path> <path d="m581.07 478.74c-21.645 0-39.398 17.695-39.398 39.34s17.754 39.34 39.398 39.34 39.34-17.695 39.34-39.34-17.695-39.34-39.34-39.34zm0 15.746c13.137 0 23.594 10.457 23.594 23.594s-10.457 23.594-23.594 23.594-23.652-10.457-23.652-23.594 10.516-23.594 23.652-23.594z"></path> <path d="m376.41 478.74c-21.645 0-39.398 17.695-39.398 39.34s17.754 39.34 39.398 39.34c21.645 0 39.34-17.695 39.34-39.34s-17.695-39.34-39.34-39.34zm0 15.746c13.137 0 23.594 10.457 23.594 23.594s-10.457 23.594-23.594 23.594c-13.137 0-23.652-10.457-23.652-23.594s10.516-23.594 23.652-23.594z"></path> <path d="m419.35 322.54c-3.2539 2.1094-4.4883 6.2773-2.9023 9.8203l30.797 69.324v61.305h15.746v-62.988c-0.007813-1.1016-0.24219-2.1914-0.69922-3.1953l-10.922-24.641 27.371 30.797v60.027h15.746v-62.988c-0.011719-1.9336-0.73828-3.7969-2.0352-5.2305l-62.93-70.836c-2.5781-2.918-6.9023-3.5078-10.172-1.3945z"></path> <path d="m418.07 323.59-35.738 35.68c-3.0898 3.0781-3.0898 8.0781 0 11.156 3.1406 3.1406 3.1406 8.0156 0 11.156-3.1406 3.1445-7.957 3.1445-11.098 0.003906-0.86328-0.86328-1.4805-1.8555-1.8594-2.9062l-14.82 5.3477c1.1445 3.1719 3.0039 6.1367 5.5234 8.6562 9.1562 9.1562 24.258 9.1562 33.414 0 6.0977-6.0977 9.3008-16.297 4.5977-26.848l31.078-31.086z"></path> </g> </g></svg>