<svg fill="#000000" version="1.1" id="Capa_1" xmlns="http://www.w3.org/2000/svg" xmlns:xlink="http://www.w3.org/1999/xlink" width="256px" height="256px" viewBox="0 0 77.08 77.08" xml:space="preserve" stroke="#000000" stroke-width="0.616656"><g id="SVGRepo_bgCarrier" stroke-width="0"></g><g id="SVGRepo_tracerCarrier" stroke-linecap="round" stroke-linejoin="round" stroke="#CCCCCC" stroke-width="2.3124599999999997"> <g> <path d="M75.207,29.14l-6.031-3.889l-23.29,8.28l-4.357-2.579H30.513v-1.437h4.728v-3.915H21.865v3.915h4.731v1.437H14.291 l-8.11-4.672L0,32.73l13.141,17.015l0.122-0.096v2.183h28.42l27.369-21.999l4.037,2.602L75.207,29.14z M5.158,33.002l1.729-1.801 l6.373,3.675v8.618L5.158,33.002z M40.302,47.917H17.18V34.866h23.278l5.012,2.97l13.217-4.698L40.302,47.917z M77.082,40.561 c0,1.619-1.313,2.934-2.934,2.934c-1.624,0-2.938-1.312-2.938-2.934c0-1.625,2.938-6.769,2.938-6.769S77.082,38.938,77.082,40.561z "></path> </g> </g><g id="SVGRepo_iconCarrier"> <g> <path d="M75.207,29.14l-6.031-3.889l-23.29,8.28l-4.357-2.579H30.513v-1.437h4.728v-3.915H21.865v3.915h4.731v1.437H14.291 l-8.11-4.672L0,32.73l13.141,17.015l0.122-0.096v2.183h28.42l27.369-21.999l4.037,2.602L75.207,29.14z M5.158,33.002l1.729-1.801 l6.373,3.675v8.618L5.158,33.002z M40.302,47.917H17.18V34.866h23.278l5.012,2.97l13.217-4.698L40.302,47.917z M77.082,40.561 c0,1.619-1.313,2.934-2.934,2.934c-1.624,0-2.938-1.312-2.938-2.934c0-1.625,2.938-6.769,2.938-6.769S77.082,38.938,77.082,40.561z "></path> </g> </g></svg>