<svg version="1.1" viewBox="144 144 512 512" xmlns="http://www.w3.org/2000/svg" fill="#000000" stroke="#000000" stroke-width="3.072"><g id="SVGRepo_bgCarrier" stroke-width="0"></g><g id="SVGRepo_tracerCarrier" stroke-linecap="round" stroke-linejoin="round"></g><g id="SVGRepo_iconCarrier"> <defs> <clipPath id="a"> <path d="m148.09 148.09h503.81v503.81h-503.81z"></path> </clipPath> </defs> <path d="m481.26 343.12c13.441 0 24.379-10.934 24.379-24.379 0-13.441-10.934-24.379-24.379-24.379-13.441 0-24.379 10.934-24.379 24.379 0 13.441 10.938 24.379 24.379 24.379zm0-32.504c4.4805 0 8.125 3.6445 8.125 8.125s-3.6445 8.125-8.125 8.125c-4.4805 0-8.125-3.6445-8.125-8.125s3.6445-8.125 8.125-8.125z"></path> <path d="m481.26 440.63c67.211 0 121.89-54.68 121.89-121.89 0-67.211-54.68-121.89-121.89-121.89-67.211 0-121.89 54.68-121.89 121.89 0 67.211 54.68 121.89 121.89 121.89zm-105.64-121.89c0-2.8867 0.12109-5.75 0.34766-8.5781l48.891 15.887c0.92188 7.1367 3.1562 13.867 6.4727 19.93l-30.188 41.547c-15.898-18.496-25.523-42.535-25.523-68.785zm105.64-40.629c22.402 0 40.629 18.227 40.629 40.629 0 22.402-18.227 40.629-40.629 40.629-22.402 0-40.629-18.227-40.629-40.629 0-22.402 18.227-40.629 40.629-40.629zm56.043 30.965c-0.9375-5.4531-2.6484-10.645-5.0273-15.457l46.637-15.152c2.0586 4.9727 3.7461 10.137 5.0312 15.453zm-16.402 50.402 28.809 39.652c-4.1172 3.5117-8.5078 6.7148-13.137 9.5703l-28.809-39.652c4.8359-2.5586 9.2539-5.7891 13.137-9.5703zm-79.281 0c3.8867 3.7812 8.3047 7.0117 13.137 9.5703l-28.809 39.652c-4.625-2.8555-9.0156-6.0586-13.137-9.5703zm-16.402-50.402-46.641-15.156c1.2852-5.3203 2.9727-10.48 5.0312-15.453l46.637 15.152c-2.3789 4.8086-4.0898 10.004-5.0273 15.457zm15.352 107.14 30.211-41.582c3.4023 0.63672 6.8984 0.98438 10.48 0.98438 3.582 0 7.082-0.34766 10.48-0.98438l30.211 41.582c-12.531 5.25-26.277 8.1562-40.691 8.1562-14.414 0-28.16-2.9062-40.691-8.1562zm120.8-28.695-30.188-41.547c3.3203-6.0625 5.5547-12.793 6.4727-19.93l48.891-15.887c0.23047 2.8281 0.34766 5.6914 0.34766 8.5781 0.003906 26.25-9.6211 50.289-25.523 68.785zm10.086-123.72-48.895 15.887c-4.8086-5.082-10.535-9.2891-16.922-12.332v-51.41c27.766 6.5859 51.328 24.156 65.816 47.855zm-82.07-50.391v49.035c-2.6562-0.38281-5.3672-0.58984-8.125-0.58984-2.7617 0-5.4727 0.20703-8.125 0.58984v-49.035c2.6836-0.20703 5.3945-0.30859 8.125-0.30859 2.7344 0 5.4453 0.10547 8.125 0.30859zm-32.504 2.5352v51.41c-6.3867 3.043-12.113 7.2461-16.922 12.332l-48.895-15.887c14.488-23.699 38.051-41.27 65.816-47.855z"></path> <g clip-path="url(#a)"> <path d="m611.27 473.13h-57.383c57.871-27.336 98.012-86.258 98.012-154.39 0-94.094-76.551-170.64-170.64-170.64-68.574 0-127.82 40.664-154.92 99.141-3.1211-19.324-19.914-34.133-40.105-34.133h-97.512c-22.402 0-40.629 18.227-40.629 40.629v357.54c0 22.402 18.227 40.629 40.629 40.629h97.512c13.277 0 25.086-6.4023 32.504-16.281 7.418 9.8789 19.227 16.281 32.504 16.281h260.03c22.402 0 40.629-18.227 40.629-40.629v-97.512c0-22.402-18.227-40.629-40.629-40.629zm24.379 40.629v8.125h-308.79v-8.125c0-13.441 10.934-24.379 24.379-24.379h4.7617l-10.504 10.504 11.492 11.492 21.992-21.996h25.773l-10.504 10.504 11.492 11.492 21.996-21.996h25.773l-10.504 10.504 11.492 11.492 21.992-21.996h25.773l-10.504 10.504 11.492 11.492 21.996-21.996h25.773l-10.504 10.504 11.492 11.492 21.992-21.996h25.773l-10.504 10.504 11.492 11.492 20.051-20.051c8.7109 3.7266 14.832 12.375 14.832 22.434zm-284.41-40.629c-9.1406 0-17.582 3.0352-24.379 8.1484v-89.91c16.918 35.82 45.941 64.844 81.762 81.762zm-24.379 65.008h308.79v48.754h-308.79zm154.39-373.8c85.133 0 154.39 69.262 154.39 154.39 0 85.133-69.262 154.39-154.39 154.39-85.133 0-154.39-69.262-154.39-154.39 0-85.133 69.262-154.39 154.39-154.39zm-219.4 65.008v406.3l-48.754 0.003906v-406.3zm-97.512 381.92v-29.141l10.504 10.504 11.492-11.492-21.996-21.992v-25.773l10.504 10.504 11.492-11.492-21.996-21.992v-25.773l10.504 10.504 11.492-11.492-21.996-21.996v-25.773l10.504 10.504 11.492-11.492-21.996-21.992v-25.773l10.504 10.504 11.492-11.492-21.996-21.996v-25.773l10.504 10.504 11.492-11.492-21.996-21.992v-25.773l10.504 10.504 11.492-11.492-21.996-21.996v-12.887c0-13.441 10.934-24.379 24.379-24.379h8.125v406.3h-8.125c-13.441 0.003906-24.379-10.934-24.379-24.375zm121.89 24.379h-8.125v-406.3h8.125c13.441 0 24.379 10.934 24.379 24.379v12.887l-21.996 21.996 11.492 11.492 10.504-10.504v25.773l-21.996 21.996 11.492 11.492 10.504-10.508v25.773l-21.996 21.996 11.492 11.492 10.504-10.504v25.773l-21.996 21.996 11.492 11.492 10.504-10.508v25.773l-21.996 21.996 11.492 11.492 10.504-10.504v25.773l-21.996 21.996 11.492 11.492 10.504-10.508v25.773l-21.996 21.996 11.492 11.492 10.504-10.504v29.137c0 13.441-10.938 24.379-24.379 24.379zm334.58-1.9492-20.051-20.051-11.492 11.492 10.508 10.508h-25.773l-21.996-21.996-11.492 11.492 10.508 10.504h-25.773l-21.996-21.996-11.492 11.492 10.504 10.504h-25.773l-21.996-21.996-11.492 11.492 10.508 10.504h-25.773l-21.996-21.996-11.492 11.492 10.504 10.504h-25.773l-21.996-21.996-11.492 11.492 10.508 10.504h-4.7617c-13.441 0-24.379-10.934-24.379-24.379v-8.125h308.79v8.125c0.003906 10.059-6.1172 18.711-14.832 22.43z"></path> </g> <path d="m473.13 554.39h16.25v16.25h-16.25z"></path> <path d="m538.14 554.39h16.25v16.25h-16.25z"></path> <path d="m505.64 554.39h16.25v16.25h-16.25z"></path> <path d="m603.15 554.39h16.25v16.25h-16.25z"></path> <path d="m570.64 554.39h16.25v16.25h-16.25z"></path> <path d="m408.12 554.39h16.25v16.25h-16.25z"></path> <path d="m343.12 554.39h16.25v16.25h-16.25z"></path> <path d="m375.62 554.39h16.25v16.25h-16.25z"></path> <path d="m440.63 554.39h16.25v16.25h-16.25z"></path> <path d="m229.35 603.15h16.25v16.25h-16.25z"></path> <path d="m229.35 538.14h16.25v16.25h-16.25z"></path> <path d="m229.35 343.12h16.25v16.25h-16.25z"></path> <path d="m229.35 310.61h16.25v16.25h-16.25z"></path> <path d="m229.35 278.11h16.25v16.25h-16.25z"></path> <path d="m229.35 245.61h16.25v16.25h-16.25z"></path> <path d="m229.35 375.62h16.25v16.25h-16.25z"></path> <path d="m229.35 408.12h16.25v16.25h-16.25z"></path> <path d="m229.35 505.64h16.25v16.25h-16.25z"></path> <path d="m229.35 473.13h16.25v16.25h-16.25z"></path> <path d="m229.35 440.63h16.25v16.25h-16.25z"></path> <path d="m229.35 570.64h16.25v16.25h-16.25z"></path> </g></svg>