<svg fill="#000000" version="1.1" viewBox="144 144 512 512" xmlns="http://www.w3.org/2000/svg"><g id="SVGRepo_bgCarrier" stroke-width="0"></g><g id="SVGRepo_tracerCarrier" stroke-linecap="round" stroke-linejoin="round"></g><g id="SVGRepo_iconCarrier"> <g> <path d="m459.82 295.3 22.828-22.828 107.06 107.06-2.3633 2.3633-15.742-10.234c-18.895-12.594-40.934-16.531-62.977-12.594-18.105 3.9375-34.637 13.383-46.445 27.551-3.1484-3.9375-4.7227-8.6602-6.2969-13.383l-8.6602-25.195c-6.2969-18.105-1.5742-38.574 12.594-52.742zm-48.805 88.953 25.977 8.6602c5.5117 1.5742 10.234 4.7227 14.957 7.8711-10.234 11.809-23.617 20.469-39.359 23.617-18.105 3.9375-36.211 0-51.168-10.234l-12.594-8.6602 8.6602-8.6602c14.953-14.168 35.422-18.891 53.527-12.594zm22.043 163.74c-2.3633 2.3633-6.2969 2.3633-8.6602 0l-109.42-109.42c-0.78906-0.78906-1.5742-2.3633-1.5742-3.9375 0-1.5742 0.78906-3.1484 1.5742-3.9375 2.3633-2.3633 6.2969-2.3633 8.6602 0l108.63 108.63c3.1484 2.3672 3.1484 6.3047 0.78906 8.6641zm33.062-43.297-22.828 22.828-107.06-107.06-0.78906-0.78906 2.3633-2.3633 15.742 10.234c14.168 9.4453 29.914 14.168 46.445 14.168 5.5117 0 11.02-0.78906 16.531-1.5742 18.105-3.9375 34.637-13.383 46.445-27.551 3.1484 3.9375 4.7227 8.6602 6.2969 13.383l8.6602 25.977c7.0859 18.109 2.3633 38.578-11.805 52.746zm48.805-88.953-25.977-8.6602c-5.5117-1.5742-10.234-4.7227-14.957-7.8711 10.234-11.809 23.617-20.469 39.359-23.617 18.105-3.9375 36.211 0 51.168 10.234l12.594 8.6602-8.6602 8.6602c-14.953 14.168-35.422 18.891-53.527 12.594zm96.039-45.656c-2.3633 2.3633-6.2969 2.3633-8.6602 0l-109.42-109.42c-2.3633-2.3633-2.3633-6.2969 0-8.6602 2.3633-2.3633 6.2969-2.3633 8.6602 0l108.63 108.63c0.78906 0.78906 1.5742 2.3633 1.5742 3.9375 0.003906 1.5742 0.003906 3.9375-0.78516 5.5117z"></path> <path d="m376.38 549.57h-196.8c-4.7227 0-7.8711 3.1484-7.8711 7.8711s3.1484 7.8711 7.8711 7.8711h196.8c4.7227 0 7.8711-3.1484 7.8711-7.8711s-3.1484-7.8711-7.8711-7.8711z"></path> <path d="m218.94 486.59h86.594c4.7227 0 7.8711-3.1484 7.8711-7.8711s-3.1484-7.8711-7.8711-7.8711h-86.594c-4.7227 0-7.8711 3.1484-7.8711 7.8711s3.1484 7.8711 7.8711 7.8711z"></path> <path d="m250.43 407.87h47.23c4.7227 0 7.8711-3.1484 7.8711-7.8711s-3.1484-7.8711-7.8711-7.8711h-47.23c-4.7227 0-7.8711 3.1484-7.8711 7.8711s3.1484 7.8711 7.8711 7.8711z"></path> <path d="m281.92 329.15h125.95c4.7227 0 7.8711-3.1484 7.8711-7.8711s-3.1484-7.8711-7.8711-7.8711h-125.95c-4.7227 0-7.8711 3.1484-7.8711 7.8711s3.1484 7.8711 7.8711 7.8711z"></path> <path d="m313.41 250.43h141.7c4.7227 0 7.8711-3.1484 7.8711-7.8711s-3.1484-7.8711-7.8711-7.8711h-141.7c-4.7227 0-7.8711 3.1484-7.8711 7.8711s3.1484 7.8711 7.8711 7.8711z"></path> </g> </g></svg>