<svg fill="#000000" width="256px" height="256px" version="1.1" viewBox="144 144 512 512" xmlns="http://www.w3.org/2000/svg" stroke="#000000" stroke-width="6.144"><g id="SVGRepo_bgCarrier" stroke-width="0"></g><g id="SVGRepo_tracerCarrier" stroke-linecap="round" stroke-linejoin="round"></g><g id="SVGRepo_iconCarrier"> <g> <path d="m354.66 227.24c-1.1172-3.7109-3.4062-6.9609-6.5195-9.2656-3.1133-2.3047-6.8867-3.543-10.762-3.5312h-85.648c-3.8477-0.011718-7.5938 1.2109-10.695 3.4844-3.1016 2.2773-5.3906 5.4883-6.5352 9.1602l-12.797 37.836-20.805 19.195v52.898l13.199 0.003907v17.633h33.957v-17.582h93.203v17.582h33.957v-17.582h13.199v-52.953l-20.758-19.246zm-110.84 2.9727c0.97266-3.3906 4.082-5.7148 7.6094-5.6914h85.648c3.5742 0.003906 6.707 2.3945 7.6562 5.8438l11.035 32.344h-122.68zm-5.8438 114.36h-13.805v-7.5039h13.805zm127.16 0h-13.801v-7.5039h13.805zm13.199-17.48h-167.36v-38.543l17.027-15.77h133.31l17.027 15.77z"></path> <path d="m231.07 288.25h10.078v24.234h-10.078z"></path> <path d="m348.16 288.25h10.078v24.234h-10.078z"></path> <path d="m354.66 400.45c-1.1172-3.7148-3.4023-6.9727-6.5117-9.2852-3.1133-2.3164-6.8906-3.5664-10.77-3.5625h-85.648c-3.8555-0.015625-7.6133 1.207-10.715 3.4961-3.1055 2.2852-5.3867 5.5117-6.5156 9.1992l-12.797 37.836-20.809 19.195v52.898h13.203v17.531h33.957v-17.531h93.203v17.531h33.957v-17.531h13.199v-52.898l-20.758-19.195zm-110.84 2.9219c1.0039-3.3711 4.0938-5.6836 7.6094-5.6953h85.648c3.5664 0.027343 6.6914 2.4102 7.6562 5.8438l10.984 32.395-122.63 0.003906zm-5.8438 114.31h-13.805v-7.457h13.805zm127.16 0h-13.801v-7.457h13.805zm13.199-17.531h-167.36v-38.391l17.027-15.77h133.31l17.027 15.77z"></path> <path d="m231.07 461.46h10.078v24.234h-10.078z"></path> <path d="m348.16 461.46h10.078v24.234h-10.078z"></path> <path d="m565.5 295.16c-1.1055-3.7109-3.3828-6.9648-6.4844-9.2812-3.1055-2.3125-6.875-3.5664-10.746-3.5664h-85.648c-3.8594-0.019532-7.625 1.2031-10.738 3.4922-3.1133 2.2852-5.4062 5.5117-6.543 9.2031l-12.848 37.836-20.906 19.195v53h13.199v17.531h33.957v-17.531h93.203v17.531l33.957 0.003906v-17.535h13.199l0.003907-53-20.809-19.195zm-110.84 2.9219c1.0039-3.3711 4.0938-5.6836 7.6094-5.6914h85.648c3.7891-0.26172 7.2422 2.1797 8.2617 5.8438l10.984 32.395h-123.43zm-5.9922 114.31h-13.805v-7.3555h13.805zm127.16 0h-13.805v-7.3555h13.805zm13.199-17.43h-167.36v-38.492l17.027-15.77h133.31l17.027 15.77z"></path> <path d="m441.77 356.17h10.078v24.234h-10.078z"></path> <path d="m558.85 356.17h10.078v24.234h-10.078z"></path> <path d="m565.5 468.32c-1.0898-3.7266-3.3594-6.9961-6.4648-9.3203-3.1094-2.3281-6.8867-3.582-10.766-3.5781h-85.648c-3.8672-0.023438-7.6445 1.2031-10.758 3.5s-5.4023 5.543-6.5234 9.2461l-12.996 37.633-20.758 19.449v52.898h13.199v17.48h33.957v-17.48h93.203v17.48l33.957 0.003906v-17.484h13.199l0.003907-52.898-20.809-19.449zm-110.84 2.9727c0.94922-3.4844 4.1484-5.875 7.7617-5.7969h85.648-0.003906c3.7734-0.19141 7.1602 2.293 8.1133 5.9453l10.984 32.344-123.43 0.003906zm-5.9922 114.26h-13.805v-7.4062h13.805zm127.16 0h-13.805v-7.4062h13.805zm13.199-17.48h-167.36v-38.441l17.027-15.77h133.31l17.027 15.77z"></path> <path d="m441.77 529.38h10.078v24.234h-10.078z"></path> <path d="m558.85 529.38h10.078v24.234h-10.078z"></path> </g> </g></svg>